<svg width="700" height="183" viewBox="0 0 700 183" fill="none" xmlns="http://www.w3.org/2000/svg">
<path d="M53.5437 40.6779C53.5437 41.6545 52.7369 42.4188 51.8028 42.4188H44.8391V49.3824C44.8391 50.359 44.0324 51.1234 43.0982 51.1234H39.5315C38.5549 51.1234 37.7906 50.3166 37.7906 49.3824V42.4188H30.8269C29.8503 42.4188 29.086 41.612 29.086 40.6779V37.1536C29.086 36.177 29.8928 35.4127 30.8269 35.4127H37.7906V28.4491C37.7906 27.4725 38.5973 26.7082 39.5315 26.7082H43.0558C44.0324 26.7082 44.7967 27.5149 44.7967 28.4491V35.4127H51.7603C52.7369 35.4127 53.5012 36.2195 53.5012 37.1536V40.6779H53.5437Z" fill="#EB1922"/>
<path d="M112.905 38.937C112.905 41.329 110.965 43.2681 108.573 43.2681C106.182 43.2681 104.242 41.329 104.242 38.937C104.242 36.545 106.182 34.606 108.573 34.606C110.965 34.606 112.905 36.545 112.905 38.937Z" fill="#EB1922"/>
<path d="M122.628 48.6606C122.628 51.0526 120.689 52.9916 118.297 52.9916C115.905 52.9916 113.966 51.0526 113.966 48.6606C113.966 46.2686 115.905 44.3296 118.297 44.3296C120.689 44.3296 122.628 46.2686 122.628 48.6606Z" fill="#EB1922"/>
<path d="M122.628 29.2133C122.628 31.6053 120.689 33.5444 118.297 33.5444C115.905 33.5444 113.966 31.6053 113.966 29.2133C113.966 26.8214 115.905 24.8823 118.297 24.8823C120.689 24.8823 122.628 26.8214 122.628 29.2133Z" fill="#EB1922"/>
<path d="M132.352 38.937C132.352 41.329 130.413 43.2681 128.021 43.2681C125.629 43.2681 123.69 41.329 123.69 38.937C123.69 36.545 125.629 34.606 128.021 34.606C130.413 34.606 132.352 36.545 132.352 38.937Z" fill="#EB1922"/>
<path d="M119.868 77.7466H108.743C98.0006 77.7466 92.1834 70.4432 88.3195 64.0316C88.3195 63.9891 88.277 63.9891 88.277 63.9467L62.1208 18.6405C58.4692 12.2713 56.7283 9.68114 49.9769 9.68114H38.8521C22.7168 9.68114 9.63871 22.8017 9.63871 38.8945C9.63871 55.0298 22.7592 68.1079 38.8521 68.1079H76.9823C79.6149 68.1079 81.7804 70.2734 81.7804 72.906C81.7804 75.5386 79.6149 77.7041 76.9823 77.7041H38.8521C28.4915 77.7041 18.7254 73.6703 11.3796 66.3245C4.03382 58.9787 0 49.2551 0 38.8521C0 28.4915 4.03382 18.7254 11.3796 11.3796C18.7254 4.03379 28.4491 0 38.8521 0H49.9769C62.5455 0 66.7491 7.3458 70.4433 13.7999L96.5994 59.0636C100.591 65.6451 103.903 68.1079 108.786 68.1079H119.911C136.046 68.1079 149.124 54.9873 149.124 38.8945C149.124 22.7592 136.003 9.68114 119.911 9.68114H81.7804C79.1478 9.68114 76.9823 7.51565 76.9823 4.88305C76.9823 2.25045 79.1478 0.0849018 81.7804 0.0849018H119.911C130.271 0.0849018 140.037 4.11874 147.383 11.4645C154.729 18.8103 158.763 28.534 158.763 38.937C158.763 49.2975 154.729 59.0636 147.383 66.4095C139.995 73.7128 130.229 77.7466 119.868 77.7466Z" fill="#EB1922"/>
<path d="M208.044 42.3281H186.366V35.4185H208.044V42.3281ZM211.104 26.821H183.623V57.7825H176.766V23.4189C176.766 22.9442 176.854 22.4959 177.03 22.0739C177.206 21.6519 177.448 21.2827 177.755 20.9663C178.063 20.6498 178.428 20.4036 178.85 20.2278C179.272 20.052 179.729 19.9641 180.221 19.9641H211.104V26.821ZM253.247 57.7825H246.39V48.4993H222.286V57.7825H215.429V38.8733C215.429 36.113 215.903 33.5724 216.853 31.2516C217.802 28.9308 219.121 26.9353 220.809 25.265C222.497 23.5947 224.492 22.2937 226.795 21.3618C229.099 20.43 231.613 19.9641 234.338 19.9641H249.792C250.267 19.9641 250.715 20.052 251.137 20.2278C251.559 20.4036 251.929 20.6498 252.245 20.9663C252.561 21.2827 252.808 21.6519 252.983 22.0739C253.159 22.4959 253.247 22.9442 253.247 23.4189V57.7825ZM222.286 41.6424H246.39V26.821H234.338C234.127 26.821 233.683 26.8518 233.006 26.9133C232.329 26.9748 231.547 27.1287 230.659 27.3748C229.771 27.621 228.835 27.999 227.85 28.5088C226.866 29.0187 225.96 29.722 225.134 30.6187C224.308 31.5153 223.626 32.6362 223.09 33.9812C222.554 35.3262 222.286 36.9569 222.286 38.8733V41.6424ZM299.004 54.8551C299.004 55.3474 298.911 55.8045 298.727 56.2265C298.542 56.6485 298.296 57.0133 297.988 57.321C297.681 57.6286 297.316 57.8704 296.894 58.0462C296.472 58.222 296.024 58.3099 295.549 58.3099C295.127 58.3099 294.701 58.2308 294.27 58.0726C293.839 57.9144 293.457 57.6594 293.123 57.3078L268.069 31.1461V57.7825H261.212V22.8915C261.212 22.1882 261.41 21.5509 261.805 20.9794C262.201 20.408 262.706 19.9817 263.322 19.7004C263.972 19.4366 264.64 19.3707 265.326 19.5026C266.012 19.6344 266.601 19.9553 267.093 20.4652L292.147 46.6005V19.9641H299.004V54.8551ZM341.147 26.821H326.036V57.7825H319.179V26.821H304.041V19.9641H341.147V26.821ZM381.972 57.7825H375.115V48.4993H351.011V57.7825H344.154V38.8733C344.154 36.113 344.628 33.5724 345.578 31.2516C346.527 28.9308 347.846 26.9353 349.534 25.265C351.222 23.5947 353.217 22.2937 355.52 21.3618C357.824 20.43 360.338 19.9641 363.063 19.9641H378.517C378.992 19.9641 379.44 20.052 379.862 20.2278C380.284 20.4036 380.653 20.6498 380.97 20.9663C381.286 21.2827 381.533 21.6519 381.708 22.0739C381.884 22.4959 381.972 22.9442 381.972 23.4189V57.7825ZM351.011 41.6424H375.115V26.821H363.063C362.852 26.821 362.408 26.8518 361.731 26.9133C361.054 26.9748 360.272 27.1287 359.384 27.3748C358.496 27.621 357.56 27.999 356.575 28.5088C355.591 29.0187 354.685 29.722 353.859 30.6187C353.033 31.5153 352.351 32.6362 351.815 33.9812C351.279 35.3262 351.011 36.9569 351.011 38.8733V41.6424ZM426.278 46.6532C426.278 48.007 426.107 49.2246 425.764 50.3058C425.421 51.3871 424.968 52.3409 424.406 53.1673C423.843 53.9936 423.184 54.6969 422.428 55.2771C421.672 55.8573 420.889 56.332 420.081 56.7012C419.272 57.0704 418.45 57.3429 417.615 57.5188C416.78 57.6946 415.993 57.7825 415.254 57.7825H388.803V50.9256H415.254C416.573 50.9256 417.597 50.5388 418.327 49.7652C419.056 48.9916 419.421 47.9543 419.421 46.6532C419.421 46.0203 419.325 45.4401 419.131 44.9126C418.938 44.3852 418.661 43.9281 418.3 43.5413C417.94 43.1545 417.5 42.8556 416.982 42.6446C416.463 42.4336 415.887 42.3281 415.254 42.3281H399.484C398.376 42.3281 397.18 42.1303 395.897 41.7347C394.613 41.3391 393.422 40.7018 392.323 39.8227C391.225 38.9436 390.31 37.792 389.581 36.3679C388.851 34.9438 388.486 33.2032 388.486 31.1461C388.486 29.089 388.851 27.3528 389.581 25.9375C390.31 24.5222 391.225 23.3706 392.323 22.4827C393.422 21.5948 394.613 20.9531 395.897 20.5575C397.18 20.1619 398.376 19.9641 399.484 19.9641H422.823V26.821H399.484C398.182 26.821 397.167 27.2166 396.438 28.0078C395.708 28.7989 395.343 29.8451 395.343 31.1461C395.343 32.4647 395.708 33.5065 396.438 34.2713C397.167 35.0361 398.182 35.4185 399.484 35.4185H415.254H415.307C416.046 35.4361 416.828 35.5372 417.654 35.7218C418.481 35.9064 419.303 36.1921 420.12 36.5789C420.938 36.9657 421.716 37.4536 422.454 38.0426C423.193 38.6315 423.847 39.3392 424.419 40.1656C424.99 40.9919 425.443 41.9413 425.777 43.0138C426.111 44.0863 426.278 45.2994 426.278 46.6532ZM467.657 32.623C467.657 34.1878 467.459 35.5855 467.063 36.8162C466.668 38.047 466.145 39.1326 465.494 40.0733C464.844 41.0139 464.083 41.8182 463.213 42.4863C462.343 43.1545 461.442 43.7039 460.51 44.1346C459.578 44.5654 458.633 44.8775 457.675 45.0709C456.717 45.2643 455.816 45.361 454.972 45.361H452.202V57.7825H445.293V45.361H442.55C441.706 45.361 440.805 45.2643 439.847 45.0709C438.889 44.8775 437.939 44.5654 436.999 44.1346C436.058 43.7039 435.157 43.1545 434.295 42.4863C433.434 41.8182 432.674 41.0139 432.014 40.0733C431.355 39.1326 430.827 38.0426 430.432 36.803C430.036 35.5635 429.838 34.1702 429.838 32.623V19.9641H436.695V32.623C436.695 33.5196 436.836 34.324 437.117 35.0361C437.399 35.7481 437.794 36.3591 438.304 36.869C438.814 37.3788 439.434 37.77 440.163 38.0426C440.893 38.3151 441.706 38.4513 442.603 38.4513H454.972C455.622 38.3458 456.29 38.2096 456.976 38.0426C457.662 37.8755 458.286 37.5898 458.848 37.1854C459.411 36.7811 459.877 36.2184 460.246 35.4976C460.615 34.7767 460.8 33.8185 460.8 32.623V19.9641H467.657V32.623ZM528.736 32.6757C528.736 34.2405 528.543 35.6382 528.156 36.869C527.769 38.0997 527.246 39.1854 526.587 40.126C525.927 41.0666 525.167 41.871 524.305 42.5391C523.444 43.2072 522.543 43.7566 521.602 44.1874C520.662 44.6181 519.712 44.9302 518.754 45.1236C517.796 45.317 516.895 45.4137 516.051 45.4137L530.371 57.7825H519.769L505.475 45.4137H500.544V38.5568H516.051C516.912 38.4865 517.699 38.3063 518.411 38.0162C519.123 37.7261 519.738 37.3349 520.257 36.8426C520.776 36.3503 521.176 35.7569 521.457 35.0624C521.738 34.368 521.879 33.5724 521.879 32.6757V28.3506C521.879 27.9638 521.831 27.6693 521.734 27.4671C521.637 27.2649 521.514 27.1155 521.365 27.0188C521.215 26.9221 521.057 26.8649 520.89 26.8474C520.723 26.8298 520.569 26.821 520.429 26.821H497.801V57.7825H490.944V23.4189C490.944 22.9442 491.032 22.4959 491.208 22.0739C491.383 21.6519 491.625 21.2827 491.933 20.9663C492.241 20.6498 492.605 20.4036 493.027 20.2278C493.449 20.052 493.906 19.9641 494.399 19.9641H520.429C521.958 19.9641 523.25 20.241 524.305 20.7948C525.36 21.3487 526.217 22.0431 526.877 22.8783C527.536 23.7134 528.011 24.6145 528.301 25.5815C528.591 26.5485 528.736 27.4539 528.736 28.2979V32.6757ZM566.713 42.3281H545.061V35.4185H566.713V42.3281ZM569.798 57.7825H545.061C544.111 57.7825 543.074 57.6155 541.949 57.2814C540.823 56.9474 539.782 56.3979 538.823 55.6331C537.865 54.8683 537.065 53.8749 536.424 52.653C535.782 51.4311 535.461 49.9322 535.461 48.1565V23.4189C535.461 22.9442 535.549 22.4959 535.725 22.0739C535.901 21.6519 536.142 21.2827 536.45 20.9663C536.758 20.6498 537.122 20.4036 537.544 20.2278C537.966 20.052 538.424 19.9641 538.916 19.9641H569.798V26.821H542.318V48.1565C542.318 49.0531 542.555 49.7388 543.03 50.2135C543.505 50.6882 544.199 50.9256 545.113 50.9256H569.798V57.7825ZM610.597 26.821H595.485V57.7825H588.628V26.821H573.49V19.9641H610.597V26.821ZM653.426 32.6757C653.426 34.2405 653.232 35.6382 652.846 36.869C652.459 38.0997 651.936 39.1854 651.276 40.126C650.617 41.0666 649.857 41.871 648.995 42.5391C648.134 43.2072 647.233 43.7566 646.292 44.1874C645.351 44.6181 644.402 44.9302 643.444 45.1236C642.486 45.317 641.585 45.4137 640.741 45.4137L655.061 57.7825H644.459L630.165 45.4137H625.233V38.5568H640.741C641.602 38.4865 642.389 38.3063 643.101 38.0162C643.813 37.7261 644.428 37.3349 644.947 36.8426C645.466 36.3503 645.866 35.7569 646.147 35.0624C646.428 34.368 646.569 33.5724 646.569 32.6757V28.3506C646.569 27.9638 646.521 27.6693 646.424 27.4671C646.327 27.2649 646.204 27.1155 646.055 27.0188C645.905 26.9221 645.747 26.8649 645.58 26.8474C645.413 26.8298 645.259 26.821 645.118 26.821H622.491V57.7825H615.634V23.4189C615.634 22.9442 615.722 22.4959 615.898 22.0739C616.073 21.6519 616.315 21.2827 616.623 20.9663C616.931 20.6498 617.295 20.4036 617.717 20.2278C618.139 20.052 618.596 19.9641 619.089 19.9641H645.118C646.648 19.9641 647.94 20.241 648.995 20.7948C650.05 21.3487 650.907 22.0431 651.567 22.8783C652.226 23.7134 652.701 24.6145 652.991 25.5815C653.281 26.5485 653.426 27.4539 653.426 28.2979V32.6757ZM700 42.4863C700 44.7896 699.604 46.9082 698.813 48.8422C698.022 50.7762 696.923 52.4464 695.517 53.853C694.11 55.2595 692.444 56.354 690.519 57.1364C688.594 57.9187 686.497 58.3099 684.229 58.3099H674.946C672.678 58.3099 670.577 57.9187 668.643 57.1364C666.709 56.354 665.039 55.2595 663.632 53.853C662.226 52.4464 661.122 50.7762 660.322 48.8422C659.522 46.9082 659.122 44.7896 659.122 42.4863V35.2602C659.122 32.9746 659.522 30.8604 660.322 28.9176C661.122 26.9748 662.226 25.3046 663.632 23.9068C665.039 22.5091 666.709 21.4146 668.643 20.6234C670.577 19.8322 672.678 19.4366 674.946 19.4366H684.229C686.497 19.4366 688.594 19.8322 690.519 20.6234C692.444 21.4146 694.11 22.5091 695.517 23.9068C696.923 25.3046 698.022 26.9748 698.813 28.9176C699.604 30.8604 700 32.9746 700 35.2602V42.4863ZM693.143 35.2602C693.143 33.9064 692.928 32.6801 692.497 31.5813C692.066 30.4824 691.46 29.5418 690.677 28.7594C689.895 27.977 688.954 27.3704 687.855 26.9397C686.757 26.5089 685.548 26.2935 684.229 26.2935H674.946C673.61 26.2935 672.392 26.5089 671.293 26.9397C670.195 27.3704 669.25 27.977 668.458 28.7594C667.667 29.5418 667.056 30.4824 666.625 31.5813C666.195 32.6801 665.979 33.9064 665.979 35.2602V42.4863C665.979 43.8401 666.195 45.0665 666.625 46.1653C667.056 47.2642 667.667 48.2048 668.458 48.9872C669.25 49.7696 670.195 50.3762 671.293 50.8069C672.392 51.2377 673.61 51.4531 674.946 51.4531H684.176C685.513 51.4531 686.73 51.2377 687.829 50.8069C688.928 50.3762 689.873 49.7696 690.664 48.9872C691.455 48.2048 692.066 47.2642 692.497 46.1653C692.928 45.0665 693.143 43.8401 693.143 42.4863V35.2602Z" fill="#092249"/>
</svg>
