<svg width="1000" height="1000" viewBox="0 0 1000 1000" xmlns="http://www.w3.org/2000/svg"><defs/><path fill="#eb1922" transform="matrix(0.4246127695877503 0 0 0.4246127695877503 33.8903078712815 7.950234782661724)" d="M 399.54842276281 1163.06998955204 C 399.54842276281 1165.36998955204 397.64842276281 1167.16998955204 395.44842276281 1167.16998955204 L 379.04842276281 1167.16998955204 L 379.04842276281 1183.56998955204 C 379.04842276281 1185.86998955204 377.14842276281 1187.66998955204 374.94842276281 1187.66998955204 L 366.54842276281 1187.66998955204 C 364.24842276281 1187.66998955204 362.44842276281 1185.76998955204 362.44842276281 1183.56998955204 L 362.44842276281 1167.16998955204 L 346.04842276281 1167.16998955204 C 343.74842276281 1167.16998955204 341.94842276281 1165.26998955204 341.94842276281 1163.06998955204 L 341.94842276281 1154.76998955204 C 341.94842276281 1152.46998955204 343.84842276281 1150.66998955204 346.04842276281 1150.66998955204 L 362.44842276281 1150.66998955204 L 362.44842276281 1134.26998955204 C 362.44842276281 1131.96998955204 364.34842276281 1130.16998955204 366.54842276281 1130.16998955204 L 374.84842276281 1130.16998955204 C 377.14842276281 1130.16998955204 378.94842276281 1132.06998955204 378.94842276281 1134.26998955204 L 378.94842276281 1150.66998955204 L 395.34842276281 1150.66998955204 C 397.64842276281 1150.66998955204 399.44842276281 1152.56998955204 399.44842276281 1154.76998955204 L 399.44842276281 1163.06998955204 Z"/><path fill="#eb1922" transform="matrix(0.4246127695877503 0 0 0.4246127695877503 33.8903078712815 7.950234782661724)" d="M 539.34842276281 1158.96998955204 C 539.34842276281 1164.60329400031 534.78172721108 1169.16998955204 529.14842276281 1169.16998955204 C 523.51511831454 1169.16998955204 518.94842276281 1164.60329400031 518.94842276281 1158.96998955204 C 518.94842276281 1153.33668510377 523.51511831454 1148.76998955204 529.14842276281 1148.76998955204 C 534.78172721108 1148.76998955204 539.34842276281 1153.33668510377 539.34842276281 1158.96998955204 Z"/><path fill="#eb1922" transform="matrix(0.4246127695877503 0 0 0.4246127695877503 33.8903078712815 7.950234782661724)" d="M 562.24842276281 1181.86998955204 C 562.24842276281 1187.50329400031 557.68172721108 1192.06998955204 552.04842276281 1192.06998955204 C 546.41511831454 1192.06998955204 541.84842276281 1187.50329400031 541.84842276281 1181.86998955204 C 541.84842276281 1176.23668510377 546.41511831454 1171.66998955204 552.04842276281 1171.66998955204 C 557.68172721108 1171.66998955204 562.24842276281 1176.23668510377 562.24842276281 1181.86998955204 Z"/><path fill="#eb1922" transform="matrix(0.4246127695877503 0 0 0.4246127695877503 33.8903078712815 7.950234782661724)" d="M 562.24842276281 1136.06998955204 C 562.24842276281 1141.70329400031 557.68172721108 1146.26998955204 552.04842276281 1146.26998955204 C 546.41511831454 1146.26998955204 541.84842276281 1141.70329400031 541.84842276281 1136.06998955204 C 541.84842276281 1130.43668510377 546.41511831454 1125.86998955204 552.04842276281 1125.86998955204 C 557.68172721108 1125.86998955204 562.24842276281 1130.43668510377 562.24842276281 1136.06998955204 Z"/><path fill="#eb1922" transform="matrix(0.4246127695877503 0 0 0.4246127695877503 33.8903078712815 7.950234782661724)" d="M 585.14842276281 1158.96998955204 C 585.14842276281 1164.60329400031 580.58172721108 1169.16998955204 574.94842276281 1169.16998955204 C 569.31511831454 1169.16998955204 564.74842276281 1164.60329400031 564.74842276281 1158.96998955204 C 564.74842276281 1153.33668510377 569.31511831454 1148.76998955204 574.94842276281 1148.76998955204 C 580.58172721108 1148.76998955204 585.14842276281 1153.33668510377 585.14842276281 1158.96998955204 Z"/><path fill="#eb1922" transform="matrix(0.4246127695877503 0 0 0.4246127695877503 33.8903078712815 7.950234782661724)" d="M 555.74842276281 1250.36998955204 L 529.54842276281 1250.36998955204 C 504.24842276281 1250.36998955204 490.54842276281 1233.16998955204 481.44842276281 1218.06998955204 C 481.44842276281 1217.96998955204 481.34842276281 1217.96998955204 481.34842276281 1217.86998955204 L 419.74842276281 1111.16998955204 C 419.74842276281 1111.16998955204 419.74842276281 1111.16998955204 419.74842276281 1111.16998955204 C 411.14842276281 1096.16998955204 407.04842276281 1090.06998955204 391.14842276281 1090.06998955204 L 364.94842276281 1090.06998955204 C 326.94842276281 1090.06998955204 296.14842276281 1120.96998955204 296.14842276281 1158.86998955204 C 296.14842276281 1196.86998955204 327.04842276281 1227.66998955204 364.94842276281 1227.66998955204 L 454.74842276281 1227.66998955204 C 460.94842276281 1227.66998955204 466.04842276281 1232.76998955204 466.04842276281 1238.96998955204 C 466.04842276281 1245.16998955204 460.94842276281 1250.26998955204 454.74842276281 1250.26998955204 L 364.94842276281 1250.26998955204 C 340.54842276281 1250.26998955204 317.54842276281 1240.76998955204 300.24842276281 1223.46998955204 C 282.94842276281 1206.16998955204 273.44842276281 1183.26998955204 273.44842276281 1158.76998955204 C 273.44842276281 1134.36998955204 282.94842276281 1111.36998955204 300.24842276281 1094.06998955204 C 317.54842276281 1076.76998955204 340.44842276281 1067.26998955204 364.94842276281 1067.26998955204 L 391.14842276281 1067.26998955204 C 420.74842276281 1067.26998955204 430.64842276281 1084.56998955204 439.34842276281 1099.76998955204 L 500.94842276281 1206.36998955204 C 510.34842276281 1221.86998955204 518.14842276281 1227.66998955204 529.64842276281 1227.66998955204 L 555.84842276281 1227.66998955204 C 593.84842276281 1227.66998955204 624.64842276281 1196.76998955204 624.64842276281 1158.86998955204 C 624.64842276281 1120.86998955204 593.74842276281 1090.06998955204 555.84842276281 1090.06998955204 L 466.04842276281 1090.06998955204 C 459.84842276281 1090.06998955204 454.74842276281 1084.96998955204 454.74842276281 1078.76998955204 C 454.74842276281 1072.56998955204 459.84842276281 1067.46998955204 466.04842276281 1067.46998955204 L 555.84842276281 1067.46998955204 C 580.24842276281 1067.46998955204 603.24842276281 1076.96998955204 620.54842276281 1094.26998955204 C 637.84842276281 1111.56998955204 647.34842276281 1134.46998955204 647.34842276281 1158.96998955204 C 647.34842276281 1183.36998955204 637.84842276281 1206.36998955204 620.54842276281 1223.66998955204 C 603.14842276281 1240.86998955204 580.14842276281 1250.36998955204 555.74842276281 1250.36998955204 Z"/><path id="text" fill="#092249" transform="matrix(0.562616720843181 0 0 0.562616720843181 231.6841781386235 23.23562040784731)" d="M 224.59383114711 853.54590452606 L 186.06258114711 853.54590452606 L 186.06258114711 841.26465452606 L 224.59383114711 841.26465452606 L 224.59383114711 853.54590452606 Z M 230.03133114711 825.98340452606 L 181.18758114711 825.98340452606 L 181.18758114711 881.01465452606 L 169.00008114711 881.01465452606 L 169.00008114711 819.93652952606 C 169.00008114711 819.09277952606 169.15633114711 818.29590452606 169.46883114711 817.54590452606 C 169.78133114711 816.79590452606 170.21101864711 816.13965452606 170.75789364711 815.57715452606 C 171.30476864711 815.01465452606 171.95320614711 814.57715452606 172.70320614711 814.26465452606 C 173.45320614711 813.95215452606 174.26570614711 813.79590452606 175.14070614711 813.79590452606 L 230.03133114711 813.79590452606 L 230.03133114711 825.98340452606 Z M 304.93758114711 881.01465452606 L 292.75008114711 881.01465452606 L 292.75008114711 864.51465452606 L 249.90633114711 864.51465452606 L 249.90633114711 881.01465452606 L 237.71883114711 881.01465452606 L 237.71883114711 847.40527952606 C 237.71883114711 842.49902952606 238.56258114711 837.98340452606 240.25008114711 833.85840452606 C 241.93758114711 829.73340452606 244.28133114711 826.18652952606 247.28133114711 823.21777952606 C 250.28133114711 820.24902952606 253.82820614711 817.93652952606 257.92195614711 816.28027952606 C 262.01570614711 814.62402952606 266.48445614711 813.79590452606 271.32820614711 813.79590452606 L 298.79695614711 813.79590452606 C 299.64070614711 813.79590452606 300.43758114711 813.95215452606 301.18758114711 814.26465452606 C 301.93758114711 814.57715452606 302.59383114711 815.01465452606 303.15633114711 815.57715452606 C 303.71883114711 816.13965452606 304.15633114711 816.79590452606 304.46883114711 817.54590452606 C 304.78133114711 818.29590452606 304.93758114711 819.09277952606 304.93758114711 819.93652952606 L 304.93758114711 881.01465452606 Z M 249.90633114711 852.32715452606 L 292.75008114711 852.32715452606 L 292.75008114711 825.98340452606 L 271.32820614711 825.98340452606 C 270.95320614711 825.98340452606 270.16414364711 826.03809202606 268.96101864711 826.14746702606 C 267.75789364711 826.25684202606 266.36726864711 826.53027952606 264.78914364711 826.96777952606 C 263.21101864711 827.40527952606 261.54695614711 828.07715452606 259.79695614711 828.98340452606 C 258.04695614711 829.88965452606 256.43758114711 831.13965452606 254.96883114711 832.73340452606 C 253.50008114711 834.32715452606 252.28914364711 836.31934202606 251.33601864711 838.70996702606 C 250.38289364711 841.10059202606 249.90633114711 843.99902952606 249.90633114711 847.40527952606 L 249.90633114711 852.32715452606 Z M 386.26570614711 875.81152952606 C 386.26570614711 876.68652952606 386.10164364711 877.49902952606 385.77351864711 878.24902952606 C 385.44539364711 878.99902952606 385.00789364711 879.64746702606 384.46101864711 880.19434202606 C 383.91414364711 880.74121702606 383.26570614711 881.17090452606 382.51570614711 881.48340452606 C 381.76570614711 881.79590452606 380.96883114711 881.95215452606 380.12508114711 881.95215452606 C 379.37508114711 881.95215452606 378.61726864711 881.81152952606 377.85164364711 881.53027952606 C 377.08601864711 881.24902952606 376.40633114711 880.79590452606 375.81258114711 880.17090452606 L 331.28133114711 833.67090452606 L 331.28133114711 881.01465452606 L 319.09383114711 881.01465452606 L 319.09383114711 818.99902952606 C 319.09383114711 817.74902952606 319.44539364711 816.61621702606 320.14851864711 815.60059202606 C 320.85164364711 814.58496702606 321.75008114711 813.82715452606 322.84383114711 813.32715452606 C 324.00008114711 812.85840452606 325.18758114711 812.74121702606 326.40633114711 812.97559202606 C 327.62508114711 813.20996702606 328.67195614711 813.78027952606 329.54695614711 814.68652952606 L 374.07820614711 861.13965452606 L 374.07820614711 813.79590452606 L 386.26570614711 813.79590452606 L 386.26570614711 875.81152952606 Z M 461.17195614711 825.98340452606 L 434.31258114711 825.98340452606 L 434.31258114711 881.01465452606 L 422.12508114711 881.01465452606 L 422.12508114711 825.98340452606 L 395.21883114711 825.98340452606 L 395.21883114711 813.79590452606 L 461.17195614711 813.79590452606 L 461.17195614711 825.98340452606 Z M 533.73445614711 881.01465452606 L 521.54695614711 881.01465452606 L 521.54695614711 864.51465452606 L 478.70320614711 864.51465452606 L 478.70320614711 881.01465452606 L 466.51570614711 881.01465452606 L 466.51570614711 847.40527952606 C 466.51570614711 842.49902952606 467.35945614711 837.98340452606 469.04695614711 833.85840452606 C 470.73445614711 829.73340452606 473.07820614711 826.18652952606 476.07820614711 823.21777952606 C 479.07820614711 820.24902952606 482.62508114711 817.93652952606 486.71883114711 816.28027952606 C 490.81258114711 814.62402952606 495.28133114711 813.79590452606 500.12508114711 813.79590452606 L 527.59383114711 813.79590452606 C 528.43758114711 813.79590452606 529.23445614711 813.95215452606 529.98445614711 814.26465452606 C 530.73445614711 814.57715452606 531.39070614711 815.01465452606 531.95320614711 815.57715452606 C 532.51570614711 816.13965452606 532.95320614711 816.79590452606 533.26570614711 817.54590452606 C 533.57820614711 818.29590452606 533.73445614711 819.09277952606 533.73445614711 819.93652952606 L 533.73445614711 881.01465452606 Z M 478.70320614711 852.32715452606 L 521.54695614711 852.32715452606 L 521.54695614711 825.98340452606 L 500.12508114711 825.98340452606 C 499.75008114711 825.98340452606 498.96101864711 826.03809202606 497.75789364711 826.14746702606 C 496.55476864711 826.25684202606 495.16414364711 826.53027952606 493.58601864711 826.96777952606 C 492.00789364711 827.40527952606 490.34383114711 828.07715452606 488.59383114711 828.98340452606 C 486.84383114711 829.88965452606 485.23445614711 831.13965452606 483.76570614711 832.73340452606 C 482.29695614711 834.32715452606 481.08601864711 836.31934202606 480.13289364711 838.70996702606 C 479.17976864711 841.10059202606 478.70320614711 843.99902952606 478.70320614711 847.40527952606 L 478.70320614711 852.32715452606 Z M 612.48445614711 861.23340452606 C 612.48445614711 863.63965452606 612.17976864711 865.80371702606 611.57039364711 867.72559202606 C 610.96101864711 869.64746702606 610.15633114711 871.34277952606 609.15633114711 872.81152952606 C 608.15633114711 874.28027952606 606.98445614711 875.53027952606 605.64070614711 876.56152952606 C 604.29695614711 877.59277952606 602.90633114711 878.43652952606 601.46883114711 879.09277952606 C 600.03133114711 879.74902952606 598.57039364711 880.23340452606 597.08601864711 880.54590452606 C 595.60164364711 880.85840452606 594.20320614711 881.01465452606 592.89070614711 881.01465452606 L 545.87508114711 881.01465452606 L 545.87508114711 868.82715452606 L 592.89070614711 868.82715452606 C 595.23445614711 868.82715452606 597.05476864711 868.13965452606 598.35164364711 866.76465452606 C 599.64851864711 865.38965452606 600.29695614711 863.54590452606 600.29695614711 861.23340452606 C 600.29695614711 860.10840452606 600.12508114711 859.07715452606 599.78133114711 858.13965452606 C 599.43758114711 857.20215452606 598.94539364711 856.38965452606 598.30476864711 855.70215452606 C 597.66414364711 855.01465452606 596.88289364711 854.48340452606 595.96101864711 854.10840452606 C 595.03914364711 853.73340452606 594.01570614711 853.54590452606 592.89070614711 853.54590452606 L 564.85945614711 853.54590452606 C 562.89070614711 853.54590452606 560.76570614711 853.19434202606 558.48445614711 852.49121702606 C 556.20320614711 851.78809202606 554.08601864711 850.65527952606 552.13289364711 849.09277952606 C 550.17976864711 847.53027952606 548.55476864711 845.48340452606 547.25789364711 842.95215452606 C 545.96101864711 840.42090452606 545.31258114711 837.32715452606 545.31258114711 833.67090452606 C 545.31258114711 830.01465452606 545.96101864711 826.92871702606 547.25789364711 824.41309202606 C 548.55476864711 821.89746702606 550.17976864711 819.85059202606 552.13289364711 818.27246702606 C 554.08601864711 816.69434202606 556.20320614711 815.55371702606 558.48445614711 814.85059202606 C 560.76570614711 814.14746702606 562.89070614711 813.79590452606 564.85945614711 813.79590452606 L 606.34383114711 813.79590452606 L 606.34383114711 825.98340452606 L 564.85945614711 825.98340452606 C 562.54695614711 825.98340452606 560.74226864711 826.68652952606 559.44539364711 828.09277952606 C 558.14851864711 829.49902952606 557.50008114711 831.35840452606 557.50008114711 833.67090452606 C 557.50008114711 836.01465452606 558.14851864711 837.86621702606 559.44539364711 839.22559202606 C 560.74226864711 840.58496702606 562.54695614711 841.26465452606 564.85945614711 841.26465452606 L 592.89070614711 841.26465452606 L 592.98445614711 841.26465452606 C 594.29695614711 841.29590452606 595.68758114711 841.47559202606 597.15633114711 841.80371702606 C 598.62508114711 842.13184202606 600.08601864711 842.63965452606 601.53914364711 843.32715452606 C 602.99226864711 844.01465452606 604.37508114711 844.88184202606 605.68758114711 845.92871702606 C 607.00008114711 846.97559202606 608.16414364711 848.23340452606 609.17976864711 849.70215452606 C 610.19539364711 851.17090452606 611.00008114711 852.85840452606 611.59383114711 854.76465452606 C 612.18758114711 856.67090452606 612.48445614711 858.82715452606 612.48445614711 861.23340452606 Z M 686.03133114711 836.29590452606 C 686.03133114711 839.07715452606 685.67976864711 841.56152952606 684.97664364711 843.74902952606 C 684.27351864711 845.93652952606 683.34383114711 847.86621702606 682.18758114711 849.53809202606 C 681.03133114711 851.20996702606 679.67976864711 852.63965452606 678.13289364711 853.82715452606 C 676.58601864711 855.01465452606 674.98445614711 855.99121702606 673.32820614711 856.75684202606 C 671.67195614711 857.52246702606 669.99226864711 858.07715452606 668.28914364711 858.42090452606 C 666.58601864711 858.76465452606 664.98445614711 858.93652952606 663.48445614711 858.93652952606 L 658.56258114711 858.93652952606 L 658.56258114711 881.01465452606 L 646.28133114711 881.01465452606 L 646.28133114711 858.93652952606 L 641.40633114711 858.93652952606 C 639.90633114711 858.93652952606 638.30476864711 858.76465452606 636.60164364711 858.42090452606 C 634.89851864711 858.07715452606 633.21101864711 857.52246702606 631.53914364711 856.75684202606 C 629.86726864711 855.99121702606 628.26570614711 855.01465452606 626.73445614711 853.82715452606 C 625.20320614711 852.63965452606 623.85164364711 851.20996702606 622.67976864711 849.53809202606 C 621.50789364711 847.86621702606 620.57039364711 845.92871702606 619.86726864711 843.72559202606 C 619.16414364711 841.52246702606 618.81258114711 839.04590452606 618.81258114711 836.29590452606 L 618.81258114711 813.79590452606 L 631.00008114711 813.79590452606 L 631.00008114711 836.29590452606 C 631.00008114711 837.88965452606 631.25008114711 839.31934202606 631.75008114711 840.58496702606 C 632.25008114711 841.85059202606 632.95320614711 842.93652952606 633.85945614711 843.84277952606 C 634.76570614711 844.74902952606 635.86726864711 845.44434202606 637.16414364711 845.92871702606 C 638.46101864711 846.41309202606 639.90633114711 846.65527952606 641.50008114711 846.65527952606 L 663.48445614711 846.65527952606 C 664.64070614711 846.46777952606 665.82820614711 846.22559202606 667.04695614711 845.92871702606 C 668.26570614711 845.63184202606 669.37508114711 845.12402952606 670.37508114711 844.40527952606 C 671.37508114711 843.68652952606 672.20320614711 842.68652952606 672.85945614711 841.40527952606 C 673.51570614711 840.12402952606 673.84383114711 838.42090452606 673.84383114711 836.29590452606 L 673.84383114711 813.79590452606 L 686.03133114711 813.79590452606 L 686.03133114711 836.29590452606 Z M 794.59383114711 836.38965452606 C 794.59383114711 839.17090452606 794.25008114711 841.65527952606 793.56258114711 843.84277952606 C 792.87508114711 846.03027952606 791.94539364711 847.95996702606 790.77351864711 849.63184202606 C 789.60164364711 851.30371702606 788.25008114711 852.73340452606 786.71883114711 853.92090452606 C 785.18758114711 855.10840452606 783.58601864711 856.08496702606 781.91414364711 856.85059202606 C 780.24226864711 857.61621702606 778.55476864711 858.17090452606 776.85164364711 858.51465452606 C 775.14851864711 858.85840452606 773.54695614711 859.03027952606 772.04695614711 859.03027952606 L 797.50008114711 881.01465452606 L 778.65633114711 881.01465452606 L 753.25008114711 859.03027952606 L 744.48445614711 859.03027952606 L 744.48445614711 846.84277952606 L 772.04695614711 846.84277952606 C 773.57820614711 846.71777952606 774.97664364711 846.39746702606 776.24226864711 845.88184202606 C 777.50789364711 845.36621702606 778.60164364711 844.67090452606 779.52351864711 843.79590452606 C 780.44539364711 842.92090452606 781.15633114711 841.86621702606 781.65633114711 840.63184202606 C 782.15633114711 839.39746702606 782.40633114711 837.98340452606 782.40633114711 836.38965452606 L 782.40633114711 828.70215452606 C 782.40633114711 828.01465452606 782.32039364711 827.49121702606 782.14851864711 827.13184202606 C 781.97664364711 826.77246702606 781.75789364711 826.50684202606 781.49226864711 826.33496702606 C 781.22664364711 826.16309202606 780.94539364711 826.06152952606 780.64851864711 826.03027952606 C 780.35164364711 825.99902952606 780.07820614711 825.98340452606 779.82820614711 825.98340452606 L 739.60945614711 825.98340452606 L 739.60945614711 881.01465452606 L 727.42195614711 881.01465452606 L 727.42195614711 819.93652952606 C 727.42195614711 819.09277952606 727.57820614711 818.29590452606 727.89070614711 817.54590452606 C 728.20320614711 816.79590452606 728.63289364711 816.13965452606 729.17976864711 815.57715452606 C 729.72664364711 815.01465452606 730.37508114711 814.57715452606 731.12508114711 814.26465452606 C 731.87508114711 813.95215452606 732.68758114711 813.79590452606 733.56258114711 813.79590452606 L 779.82820614711 813.79590452606 C 782.54695614711 813.79590452606 784.84383114711 814.28809202606 786.71883114711 815.27246702606 C 788.59383114711 816.25684202606 790.11726864711 817.49121702606 791.28914364711 818.97559202606 C 792.46101864711 820.45996702606 793.30476864711 822.06152952606 793.82039364711 823.78027952606 C 794.33601864711 825.49902952606 794.59383114711 827.10840452606 794.59383114711 828.60840452606 L 794.59383114711 836.38965452606 Z M 862.09383114711 853.54590452606 L 823.60945614711 853.54590452606 L 823.60945614711 841.26465452606 L 862.09383114711 841.26465452606 L 862.09383114711 853.54590452606 Z M 867.57820614711 881.01465452606 L 823.60945614711 881.01465452606 C 821.92195614711 881.01465452606 820.07820614711 880.71777952606 818.07820614711 880.12402952606 C 816.07820614711 879.53027952606 814.22664364711 878.55371702606 812.52351864711 877.19434202606 C 810.82039364711 875.83496702606 809.39851864711 874.06934202606 808.25789364711 871.89746702606 C 807.11726864711 869.72559202606 806.54695614711 867.06152952606 806.54695614711 863.90527952606 L 806.54695614711 819.93652952606 C 806.54695614711 819.09277952606 806.70320614711 818.29590452606 807.01570614711 817.54590452606 C 807.32820614711 816.79590452606 807.75789364711 816.13965452606 808.30476864711 815.57715452606 C 808.85164364711 815.01465452606 809.50008114711 814.57715452606 810.25008114711 814.26465452606 C 811.00008114711 813.95215452606 811.81258114711 813.79590452606 812.68758114711 813.79590452606 L 867.57820614711 813.79590452606 L 867.57820614711 825.98340452606 L 818.73445614711 825.98340452606 L 818.73445614711 863.90527952606 C 818.73445614711 865.49902952606 819.15633114711 866.71777952606 820.00008114711 867.56152952606 C 820.84383114711 868.40527952606 822.07820614711 868.82715452606 823.70320614711 868.82715452606 L 867.57820614711 868.82715452606 L 867.57820614711 881.01465452606 Z M 940.09383114711 825.98340452606 L 913.23445614711 825.98340452606 L 913.23445614711 881.01465452606 L 901.04695614711 881.01465452606 L 901.04695614711 825.98340452606 L 874.14070614711 825.98340452606 L 874.14070614711 813.79590452606 L 940.09383114711 813.79590452606 L 940.09383114711 825.98340452606 Z M 1016.21883114711 836.38965452606 C 1016.21883114711 839.17090452606 1015.87508114711 841.65527952606 1015.18758114711 843.84277952606 C 1014.50008114711 846.03027952606 1013.57039364711 847.95996702606 1012.39851864711 849.63184202606 C 1011.22664364711 851.30371702606 1009.87508114711 852.73340452606 1008.34383114711 853.92090452606 C 1006.81258114711 855.10840452606 1005.21101864711 856.08496702606 1003.53914364711 856.85059202606 C 1001.86726864711 857.61621702606 1000.17976864711 858.17090452606 998.47664364711 858.51465452606 C 996.77351864711 858.85840452606 995.17195614711 859.03027952606 993.67195614711 859.03027952606 L 1019.12508114711 881.01465452606 L 1000.28133114711 881.01465452606 L 974.87508114711 859.03027952606 L 966.10945614711 859.03027952606 L 966.10945614711 846.84277952606 L 993.67195614711 846.84277952606 C 995.20320614711 846.71777952606 996.60164364711 846.39746702606 997.86726864711 845.88184202606 C 999.13289364711 845.36621702606 1000.22664364711 844.67090452606 1001.14851864711 843.79590452606 C 1002.07039364711 842.92090452606 1002.78133114711 841.86621702606 1003.28133114711 840.63184202606 C 1003.78133114711 839.39746702606 1004.03133114711 837.98340452606 1004.03133114711 836.38965452606 L 1004.03133114711 828.70215452606 C 1004.03133114711 828.01465452606 1003.94539364711 827.49121702606 1003.77351864711 827.13184202606 C 1003.60164364711 826.77246702606 1003.38289364711 826.50684202606 1003.11726864711 826.33496702606 C 1002.85164364711 826.16309202606 1002.57039364711 826.06152952606 1002.27351864711 826.03027952606 C 1001.97664364711 825.99902952606 1001.70320614711 825.98340452606 1001.45320614711 825.98340452606 L 961.23445614711 825.98340452606 L 961.23445614711 881.01465452606 L 949.04695614711 881.01465452606 L 949.04695614711 819.93652952606 C 949.04695614711 819.09277952606 949.20320614711 818.29590452606 949.51570614711 817.54590452606 C 949.82820614711 816.79590452606 950.25789364711 816.13965452606 950.80476864711 815.57715452606 C 951.35164364711 815.01465452606 952.00008114711 814.57715452606 952.75008114711 814.26465452606 C 953.50008114711 813.95215452606 954.31258114711 813.79590452606 955.18758114711 813.79590452606 L 1001.45320614711 813.79590452606 C 1004.17195614711 813.79590452606 1006.46883114711 814.28809202606 1008.34383114711 815.27246702606 C 1010.21883114711 816.25684202606 1011.74226864711 817.49121702606 1012.91414364711 818.97559202606 C 1014.08601864711 820.45996702606 1014.92976864711 822.06152952606 1015.44539364711 823.78027952606 C 1015.96101864711 825.49902952606 1016.21883114711 827.10840452606 1016.21883114711 828.60840452606 L 1016.21883114711 836.38965452606 Z M 1099.00008114711 853.82715452606 C 1099.00008114711 857.92090452606 1098.29695614711 861.68652952606 1096.89070614711 865.12402952606 C 1095.48445614711 868.56152952606 1093.53133114711 871.53027952606 1091.03133114711 874.03027952606 C 1088.53133114711 876.53027952606 1085.57039364711 878.47559202606 1082.14851864711 879.86621702606 C 1078.72664364711 881.25684202606 1075.00008114711 881.95215452606 1070.96883114711 881.95215452606 L 1054.46883114711 881.95215452606 C 1050.43758114711 881.95215452606 1046.70320614711 881.25684202606 1043.26570614711 879.86621702606 C 1039.82820614711 878.47559202606 1036.85945614711 876.53027952606 1034.35945614711 874.03027952606 C 1031.85945614711 871.53027952606 1029.89851864711 868.56152952606 1028.47664364711 865.12402952606 C 1027.05476864711 861.68652952606 1026.34383114711 857.92090452606 1026.34383114711 853.82715452606 L 1026.34383114711 840.98340452606 C 1026.34383114711 836.92090452606 1027.05476864711 833.16309202606 1028.47664364711 829.70996702606 C 1029.89851864711 826.25684202606 1031.85945614711 823.28809202606 1034.35945614711 820.80371702606 C 1036.85945614711 818.31934202606 1039.82820614711 816.37402952606 1043.26570614711 814.96777952606 C 1046.70320614711 813.56152952606 1050.43758114711 812.85840452606 1054.46883114711 812.85840452606 L 1070.96883114711 812.85840452606 C 1075.00008114711 812.85840452606 1078.72664364711 813.56152952606 1082.14851864711 814.96777952606 C 1085.57039364711 816.37402952606 1088.53133114711 818.31934202606 1091.03133114711 820.80371702606 C 1093.53133114711 823.28809202606 1095.48445614711 826.25684202606 1096.89070614711 829.70996702606 C 1098.29695614711 833.16309202606 1099.00008114711 836.92090452606 1099.00008114711 840.98340452606 L 1099.00008114711 853.82715452606 Z M 1086.81258114711 840.98340452606 C 1086.81258114711 838.57715452606 1086.42976864711 836.39746702606 1085.66414364711 834.44434202606 C 1084.89851864711 832.49121702606 1083.82039364711 830.81934202606 1082.42976864711 829.42871702606 C 1081.03914364711 828.03809202606 1079.36726864711 826.95996702606 1077.41414364711 826.19434202606 C 1075.46101864711 825.42871702606 1073.31258114711 825.04590452606 1070.96883114711 825.04590452606 L 1054.46883114711 825.04590452606 C 1052.09383114711 825.04590452606 1049.92976864711 825.42871702606 1047.97664364711 826.19434202606 C 1046.02351864711 826.95996702606 1044.34383114711 828.03809202606 1042.93758114711 829.42871702606 C 1041.53133114711 830.81934202606 1040.44539364711 832.49121702606 1039.67976864711 834.44434202606 C 1038.91414364711 836.39746702606 1038.53133114711 838.57715452606 1038.53133114711 840.98340452606 L 1038.53133114711 853.82715452606 C 1038.53133114711 856.23340452606 1038.91414364711 858.41309202606 1039.67976864711 860.36621702606 C 1040.44539364711 862.31934202606 1041.53133114711 863.99121702606 1042.93758114711 865.38184202606 C 1044.34383114711 866.77246702606 1046.02351864711 867.85059202606 1047.97664364711 868.61621702606 C 1049.92976864711 869.38184202606 1052.09383114711 869.76465452606 1054.46883114711 869.76465452606 L 1070.87508114711 869.76465452606 C 1073.25008114711 869.76465452606 1075.41414364711 869.38184202606 1077.36726864711 868.61621702606 C 1079.32039364711 867.85059202606 1081.00008114711 866.77246702606 1082.40633114711 865.38184202606 C 1083.81258114711 863.99121702606 1084.89851864711 862.31934202606 1085.66414364711 860.36621702606 C 1086.42976864711 858.41309202606 1086.81258114711 856.23340452606 1086.81258114711 853.82715452606 L 1086.81258114711 840.98340452606 Z"/></svg>